<?xml version="1.0" standalone="no"?>
<!DOCTYPE svg PUBLIC "-//W3C//DTD SVG 20010904//EN"
 "http://www.w3.org/TR/2001/REC-SVG-20010904/DTD/svg10.dtd">
<svg version="1.0" xmlns="http://www.w3.org/2000/svg"
 width="300.000000pt" height="307.000000pt" viewBox="0 0 300.000000 307.000000"
 preserveAspectRatio="xMidYMid meet">
<metadata>
Created by potrace 1.10, written by Peter Selinger 2001-2011
</metadata>
<g transform="translate(0.000000,307.000000) scale(0.100000,-0.100000)"
fill="#000000" stroke="none">
<path d="M0 1534 l0 -1535 1152 6 c634 4 1155 9 1157 11 2 2 -216 4 -485 4
-1026 1 -1149 2 -1157 7 -4 3 -3 11 3 18 15 18 50 143 50 177 0 16 -4 28 -9
28 -11 0 -37 -64 -46 -113 -4 -20 -13 -52 -19 -72 l-13 -35 -301 -1 -302 0 0
1506 0 1506 1470 0 1470 0 0 -1507 0 -1506 -100 -2 c-90 -1 -100 1 -100 17 0
10 -9 35 -19 55 -13 25 -16 43 -10 53 4 9 15 55 24 103 12 69 12 92 3 109 -7
12 -15 42 -19 67 -4 25 -12 69 -18 98 -9 44 -8 59 4 82 8 16 15 37 15 47 -1
25 -24 88 -44 118 -11 17 -18 53 -20 108 -5 89 -16 128 -102 345 -71 180 -220
447 -311 560 -51 62 -205 132 -325 147 -26 3 -50 10 -53 16 -4 5 -19 9 -35 9
-19 0 -33 7 -40 21 -7 11 -27 27 -46 35 -19 8 -58 36 -88 63 -51 47 -102 71
-115 54 -4 -4 -4 -30 0 -58 3 -27 7 -37 7 -22 2 23 6 27 25 24 25 -3 127 -74
127 -88 0 -5 11 -9 24 -9 14 0 38 -11 54 -25 17 -14 38 -25 47 -25 22 0 -11
-27 -77 -65 -24 -14 -40 -25 -36 -25 15 0 94 34 121 52 15 11 27 15 27 9 0
-14 -50 -51 -68 -51 -8 0 -13 -2 -10 -5 3 -3 24 0 46 7 39 12 62 44 47 68 -6
9 34 1 50 -10 6 -4 25 -11 43 -15 21 -4 30 -11 25 -18 -5 -9 -3 -9 8 -1 21 16
141 -27 128 -47 -13 -20 -11 -29 5 -29 8 0 16 -5 18 -11 3 -9 9 -9 26 0 18 10
23 8 36 -11 8 -13 18 -35 21 -51 6 -21 10 -25 20 -17 10 8 16 2 26 -27 7 -21
12 -42 11 -46 -1 -5 2 -6 7 -3 8 6 20 -14 84 -139 9 -19 22 -35 27 -35 6 0 10
-10 10 -23 0 -13 14 -44 30 -70 17 -26 30 -54 30 -62 0 -7 5 -17 10 -20 6 -3
10 -13 10 -21 0 -9 16 -48 35 -88 19 -40 35 -83 35 -95 0 -12 9 -39 19 -60 11
-21 21 -64 23 -95 2 -32 7 -60 11 -63 4 -2 7 -21 6 -41 -1 -21 6 -54 18 -77
29 -56 37 -103 22 -121 -13 -16 -7 -129 11 -180 5 -16 12 -45 14 -64 3 -19 5
-37 6 -40 6 -18 -3 -103 -16 -148 -16 -58 -9 -109 21 -138 26 -26 3 -33 -110
-36 l-100 -1 115 -7 c63 -4 170 -8 238 -9 l122 -1 0 1535 0 1535 -1500 0
-1500 0 0 -1536z"/>
<path d="M1140 3014 c-104 -36 -117 -45 -144 -97 -14 -29 -26 -64 -26 -78 0
-14 -7 -48 -15 -75 -19 -63 -19 -160 0 -214 8 -23 15 -53 15 -66 0 -15 -6 -24
-15 -24 -18 0 -21 -60 -4 -91 6 -11 21 -57 35 -102 13 -44 33 -90 43 -101 10
-12 22 -31 25 -42 4 -12 15 -29 26 -39 11 -10 20 -30 20 -44 0 -21 -9 -30 -42
-46 -65 -31 -155 -102 -194 -154 -20 -25 -66 -67 -102 -93 -37 -25 -80 -60
-97 -77 l-29 -32 68 -67 c37 -37 63 -57 57 -44 -7 12 -16 22 -21 22 -6 0 -10
6 -10 14 0 7 -18 26 -40 41 -44 30 -44 39 -2 40 18 0 28 6 30 19 4 19 83 98
99 98 4 0 17 4 28 10 17 8 18 7 5 -4 -9 -7 -14 -22 -12 -33 4 -16 2 -17 -11
-7 -10 9 -17 10 -22 2 -3 -5 0 -10 7 -10 7 -1 0 -7 -17 -15 l-30 -13 31 -1
c36 -1 79 38 90 82 9 39 97 127 163 165 30 17 58 29 61 27 4 -2 7 1 8 8 15 95
15 94 -23 156 -20 33 -38 71 -39 84 0 14 -4 23 -8 21 -13 -8 -46 71 -56 132
-5 32 -8 127 -8 209 1 135 3 154 23 190 33 59 75 101 116 116 20 7 37 16 37
21 0 9 -71 -16 -104 -37 -28 -19 -32 -11 -16 29 11 29 -3 36 -18 10 -8 -15
-10 -15 -15 0 -4 10 -3 14 2 11 5 -3 16 4 24 15 13 18 16 19 27 5 11 -13 15
-12 34 9 32 36 98 47 208 34 44 -5 118 -43 118 -61 0 -4 -10 -11 -22 -16 -20
-7 -19 -9 14 -15 44 -8 75 -32 111 -83 23 -34 29 -57 42 -183 8 -80 18 -159
21 -175 3 -20 -3 -54 -20 -98 -14 -37 -23 -67 -21 -67 2 0 -3 -24 -11 -52 -7
-29 -14 -66 -14 -82 0 -29 0 -29 18 -10 17 18 37 73 49 136 3 18 12 28 27 30
39 6 73 163 43 203 -12 16 -18 17 -28 8 -8 -8 -9 -16 -2 -25 13 -16 23 -68 14
-68 -4 0 -15 6 -25 13 -18 13 -18 60 1 89 19 30 29 138 17 175 -7 19 -10 50
-7 68 4 28 1 36 -20 50 -15 9 -29 25 -32 35 -3 10 -31 33 -61 50 -31 17 -76
50 -100 72 l-45 42 -107 2 c-59 2 -114 0 -122 -2z m482 -632 c3 -11 -1 -30 -8
-43 -13 -23 -13 -22 -14 19 0 43 14 57 22 24z"/>
<path d="M350 2695 c0 -38 -4 -55 -13 -55 -9 0 -11 12 -9 40 3 25 0 40 -7 40
-6 0 -11 -17 -11 -40 0 -22 -4 -40 -10 -40 -5 0 -10 16 -10 36 0 40 -18 64
-49 64 -18 0 -21 -6 -21 -45 0 -31 -5 -47 -15 -51 -8 -4 -15 -10 -15 -15 0 -5
7 -9 15 -9 11 0 15 -12 15 -50 0 -44 3 -50 21 -50 31 0 49 24 49 64 0 20 5 36
10 36 6 0 10 -16 10 -35 0 -19 5 -35 11 -35 7 0 10 14 7 35 -3 24 0 35 9 35 9
0 13 -16 13 -50 0 -61 17 -67 22 -7 l4 42 19 -42 c11 -24 26 -43 33 -43 6 0
12 2 12 5 0 16 -42 85 -57 94 -17 9 -17 11 3 25 25 18 58 82 49 96 -9 15 -25
2 -25 -19 0 -11 -9 -29 -20 -42 l-19 -24 -1 48 c0 26 -4 47 -10 47 -5 0 -10
-25 -10 -55z m-80 -14 c0 -22 -6 -42 -12 -45 -10 -5 -10 -7 0 -12 18 -9 16
-84 -3 -84 -12 0 -15 17 -15 90 0 73 3 90 15 90 11 0 15 -11 15 -39z"/>
<path d="M1348 2649 c-10 -5 -18 -6 -18 -2 0 12 -20 -20 -20 -32 0 -5 5 -3 10
5 8 11 12 12 18 3 5 -8 13 -9 22 -3 19 12 76 13 118 1 36 -11 41 -2 14 22 -21
19 -116 23 -144 6z"/>
<path d="M1070 2640 c-35 -9 -60 -33 -60 -58 0 -13 3 -13 18 0 18 17 111 40
124 32 10 -6 10 8 0 21 -9 13 -38 14 -82 5z"/>
<path d="M1467 2568 c18 -21 18 -21 -5 -9 -13 7 -37 11 -54 9 -31 -3 -31 -3
-13 -22 18 -17 19 -17 31 -1 12 15 15 16 34 2 29 -20 53 -12 40 13 -5 10 -19
20 -31 23 -20 5 -20 5 -2 -15z"/>
<path d="M1194 2555 c3 -9 0 -15 -9 -15 -23 0 -18 -16 5 -17 11 -1 20 2 20 7
0 5 3 15 6 24 4 11 1 16 -11 16 -11 0 -15 -5 -11 -15z"/>
<path d="M1047 2542 c-24 -26 -22 -51 3 -45 11 3 20 11 20 19 0 21 22 28 32
11 10 -19 34 -13 42 10 5 13 -1 15 -39 11 -24 -3 -42 -2 -39 3 9 15 -2 10 -19
-9z"/>
<path d="M369 2411 c-33 -27 -18 -36 20 -13 17 10 28 22 24 25 -10 11 -19 8
-44 -12z"/>
<path d="M1200 2405 c-10 -12 -10 -18 1 -31 11 -14 11 -18 -4 -29 -18 -13 -13
-50 5 -39 5 3 7 12 4 20 -5 12 11 19 37 15 15 -2 6 15 -14 27 -16 10 -18 16
-9 27 6 8 7 16 2 19 -6 3 -15 -1 -22 -9z"/>
<path d="M1275 2410 c-3 -5 1 -10 9 -10 8 0 19 -7 24 -16 6 -12 11 -13 16 -5
8 12 -16 41 -33 41 -5 0 -13 -4 -16 -10z"/>
<path d="M225 2368 c0 -26 -5 -43 -12 -43 -23 0 -26 -16 -4 -22 20 -5 22 -11
19 -44 l-4 -39 43 0 43 0 0 45 c0 42 2 45 19 36 15 -9 22 -6 36 15 19 29 10
49 -9 21 -7 -9 -21 -17 -30 -17 -12 0 -16 10 -16 45 l0 45 -42 0 -43 0 0 -42z
m65 -14 c0 -31 -3 -35 -22 -32 -13 2 -22 6 -20 11 1 4 2 18 2 32 0 18 5 25 20
25 16 0 20 -7 20 -36z m0 -80 c0 -27 -4 -34 -19 -34 -13 0 -20 9 -23 30 -5 35
-5 35 22 37 16 1 20 -4 20 -33z"/>
<path d="M380 2371 c0 -6 7 -11 15 -11 11 0 15 -11 15 -40 0 -39 -1 -40 -35
-40 -19 0 -35 -5 -35 -11 0 -6 17 -9 43 -7 l42 3 0 55 c0 49 -2 55 -22 58 -13
2 -23 -1 -23 -7z"/>
<path d="M1143 2317 c-7 -7 -19 -18 -28 -25 -8 -7 -15 -23 -14 -35 0 -14 3
-17 6 -8 3 8 19 27 34 42 16 16 29 31 29 34 0 9 -14 5 -27 -8z"/>
<path d="M1207 2293 c-3 -5 16 -7 41 -5 73 5 82 10 20 11 -31 0 -59 -2 -61 -6z"/>
<path d="M1233 2239 c-20 -20 -4 -39 24 -28 13 5 28 7 32 5 12 -8 34 11 27 23
-9 14 -69 14 -83 0z"/>
<path d="M350 2232 c0 -9 44 -32 60 -32 19 0 10 17 -15 28 -31 14 -45 15 -45
4z"/>
<path d="M240 2040 c0 -33 4 -60 10 -60 6 0 10 27 10 60 0 33 -4 60 -10 60 -6
0 -10 -27 -10 -60z"/>
<path d="M385 2048 c0 -50 -2 -53 -23 -50 -15 1 -22 -2 -20 -10 6 -18 36 -22
53 -8 19 16 21 120 3 120 -9 0 -13 -17 -13 -52z"/>
<path d="M340 1940 c0 -4 6 -11 13 -14 11 -6 -96 0 -124 6 -6 2 -13 -2 -16 -8
-7 -21 176 -34 207 -14 13 8 13 9 0 14 -8 2 -30 9 -47 15 -18 5 -33 6 -33 1z"/>
<path d="M1107 1908 c-11 -28 -14 -45 -7 -52 7 -7 10 -5 10 6 0 9 5 18 11 20
6 2 9 18 7 35 l-3 32 -18 -41z"/>
<path d="M1603 1900 c-3 -12 -26 -32 -52 -46 -25 -13 -35 -22 -22 -18 47 13
84 40 86 62 2 28 -5 29 -12 2z"/>
<path d="M1420 1803 c-36 -13 -90 -28 -120 -32 l-55 -9 45 -1 c41 -1 152 32
197 58 29 17 3 11 -67 -16z"/>
<path d="M274 1779 c-10 -12 -31 -27 -46 -35 -30 -15 -37 -34 -14 -34 20 0
102 75 89 83 -6 4 -19 -3 -29 -14z"/>
<path d="M290 1686 l0 -77 -45 27 c-31 18 -45 22 -45 12 0 -7 18 -23 41 -36
22 -13 43 -30 46 -38 10 -27 21 -14 21 27 1 23 3 43 6 46 10 10 81 -33 91 -54
5 -13 15 -23 22 -23 39 0 -25 76 -78 91 -35 11 -39 15 -39 46 0 29 3 33 28 33
52 0 72 -11 72 -37 0 -15 5 -23 13 -20 11 3 12 55 1 67 -3 2 -34 6 -69 8 l-65
4 0 -76z"/>
<path d="M590 1630 c-11 -7 -12 -12 -3 -21 13 -13 -4 -51 -52 -118 -14 -18
-27 -50 -30 -70 -3 -20 -13 -61 -22 -91 -11 -35 -18 -101 -20 -183 l-4 -128
-44 -65 c-50 -73 -53 -88 -25 -124 25 -31 25 -35 -1 -71 -15 -21 -19 -38 -15
-56 4 -14 2 -50 -4 -80 -9 -40 -9 -58 -1 -66 6 -6 11 -21 11 -34 0 -45 40
-166 66 -202 53 -71 94 -101 138 -100 49 0 108 19 114 37 2 7 -5 12 -18 12
-20 0 -21 2 -9 16 9 11 -3 8 -39 -10 l-52 -26 -40 20 c-23 12 -46 33 -52 48
-7 15 -20 37 -31 49 -11 12 -20 38 -20 62 -1 27 -7 41 -16 41 -10 0 -12 9 -8
33 3 18 1 55 -4 81 -5 30 -5 54 1 65 5 9 10 12 10 7 0 -5 11 1 25 14 14 13 28
21 31 18 3 -4 -6 -14 -21 -24 -14 -9 -30 -25 -35 -35 -9 -15 -4 -14 33 6 55
30 97 40 97 23 0 -7 25 -20 56 -29 51 -16 55 -16 49 0 -4 9 -10 24 -12 34 -5
16 -7 17 -23 2 -12 -11 -20 -13 -25 -6 -3 6 -15 11 -26 11 -10 0 -19 5 -19 10
0 6 -15 9 -32 8 -22 -2 -32 1 -31 10 4 18 -11 15 -40 -8 -31 -25 -44 -11 -17
18 21 23 27 37 10 27 -14 -9 -12 19 2 33 8 8 9 12 1 12 -6 0 -9 8 -7 18 3 9
-1 26 -9 36 -11 15 -12 27 -5 48 6 15 13 28 18 28 4 0 5 11 3 24 -3 13 1 27 8
31 9 6 11 2 7 -13 -4 -12 -2 -22 2 -22 19 0 32 80 36 209 2 74 8 137 12 140 5
3 17 41 27 85 10 43 25 84 33 92 24 25 62 103 52 109 -6 4 -10 11 -10 16 0 6
20 -4 44 -21 48 -32 56 -35 56 -21 0 6 -13 17 -29 27 -15 9 -36 30 -45 45 -19
31 -23 33 -46 19z"/>
<path d="M630 1538 c0 -17 12 -33 25 -34 29 -1 73 -19 94 -38 l24 -21 -19 28
c-10 15 -31 30 -46 33 -15 4 -35 15 -44 25 -20 22 -34 25 -34 7z"/>
<path d="M230 1411 c0 -44 -2 -49 -20 -44 -11 3 -20 1 -20 -5 0 -5 9 -12 20
-15 15 -4 20 -14 20 -41 l0 -36 105 0 c95 0 123 7 95 25 -5 3 -10 35 -10 70 0
35 5 67 10 70 28 18 0 25 -95 25 l-105 0 0 -49z m60 -45 c0 -67 -4 -78 -26
-69 -19 7 -20 129 -1 136 22 8 27 -4 27 -67z m54 -1 c0 -58 -2 -70 -17 -73
-15 -3 -17 6 -17 73 0 67 2 76 17 73 15 -3 17 -15 17 -73z m56 -1 c0 -65 -2
-75 -17 -72 -13 2 -16 16 -18 68 -1 74 0 80 21 80 11 0 14 -16 14 -76z"/>
<path d="M1700 1360 c-8 -5 -12 -11 -10 -13 8 -8 70 5 70 14 0 12 -41 11 -60
-1z"/>
<path d="M1767 1344 c-3 -3 -3 -12 -1 -19 3 -8 -7 -15 -27 -19 -24 -4 -35 -2
-45 11 -12 17 -13 17 -14 1 0 -19 10 -27 42 -33 26 -5 68 19 68 40 0 16 -14
27 -23 19z"/>
<path d="M532 851 c-6 -17 -7 -42 -3 -58 7 -25 8 -22 15 26 8 61 3 75 -12 32z"/>
<path d="M647 689 c7 -7 27 -13 45 -14 21 -2 41 -13 56 -31 l24 -27 -4 24 c-5
36 -40 59 -89 59 -32 0 -40 -3 -32 -11z"/>
<path d="M487 613 c-4 -3 -7 -17 -7 -30 0 -23 0 -23 20 -3 11 11 20 25 20 30
0 11 -23 14 -33 3z"/>
<path d="M450 605 c-4 -18 1 -60 10 -68 17 -18 91 -27 132 -17 35 10 43 9 62
-8 28 -25 50 -32 67 -21 11 7 10 9 -5 9 -27 0 -56 38 -57 74 0 26 -2 28 -8 11
-5 -11 -6 -25 -4 -31 5 -14 -105 -35 -127 -24 -8 4 -20 6 -26 3 -16 -5 -32 17
-37 52 -2 17 -5 26 -7 20z"/>
</g>
</svg>
