<?xml version="1.0" standalone="no"?>
<!DOCTYPE svg PUBLIC "-//W3C//DTD SVG 20010904//EN"
 "http://www.w3.org/TR/2001/REC-SVG-20010904/DTD/svg10.dtd">
<svg version="1.0" xmlns="http://www.w3.org/2000/svg"
 width="1280.000000pt" height="1036.000000pt" viewBox="0 0 1280.000000 1036.000000"
 preserveAspectRatio="xMidYMid meet">
<metadata>
Created by potrace 1.15, written by Peter Selinger 2001-2017
</metadata>
<g transform="translate(0.000000,1036.000000) scale(0.100000,-0.100000)"
fill="#000000" stroke="none">
<path d="M10357 10278 c-54 -99 -69 -114 -167 -167 -92 -49 -212 -84 -356
-105 -190 -26 -299 -28 -631 -11 -294 15 -333 15 -457 1 -246 -28 -460 -95
-601 -188 -97 -63 -215 -180 -276 -273 -55 -82 -85 -113 -99 -99 -6 6 -14 53
-19 106 -14 141 -32 167 -118 168 -58 0 -142 -28 -199 -67 -21 -14 -40 -21
-42 -15 -9 27 -114 155 -182 222 -204 200 -467 329 -770 379 -284 46 -671 67
-845 45 -382 -48 -761 -207 -1062 -445 -147 -117 -307 -324 -397 -512 -85
-180 -123 -329 -136 -537 -5 -85 -15 -217 -21 -292 -7 -75 -8 -145 -4 -155 4
-10 9 -117 11 -238 5 -280 7 -300 39 -375 15 -35 33 -94 40 -132 13 -68 12
-69 -9 -77 -37 -15 -59 -49 -63 -98 -4 -37 7 -89 46 -223 67 -233 81 -299 83
-378 2 -79 -18 -131 -66 -167 -19 -14 -238 -91 -571 -200 -1776 -581 -2272
-760 -2299 -831 -3 -8 -6 -35 -6 -58 0 -43 -1 -44 -53 -65 -185 -78 -469 -189
-567 -222 -125 -41 -350 -135 -414 -173 -76 -45 -146 -128 -146 -173 0 -35 54
-73 108 -74 70 -2 88 0 193 18 l96 16 33 -29 c18 -16 45 -55 60 -87 35 -72 45
-84 92 -108 28 -14 49 -18 74 -13 19 3 74 7 122 8 48 1 94 5 103 9 12 6 19 0
29 -23 37 -89 254 -159 333 -107 15 9 58 64 97 122 38 57 96 133 129 167 l59
63 74 -3 c64 -3 89 1 198 36 553 179 1501 348 2158 386 89 6 94 5 118 -19 29
-30 30 -42 7 -310 -13 -156 -17 -321 -17 -755 -1 -624 -4 -584 89 -1370 58
-492 73 -630 69 -630 -2 0 -274 -56 -606 -126 -332 -69 -884 -183 -1228 -255
-826 -172 -953 -198 -958 -204 -7 -7 34 -59 81 -102 151 -139 435 -190 817
-148 181 20 410 68 795 164 176 44 408 101 515 127 107 25 287 68 399 95 112
27 207 46 210 43 3 -3 5 -87 5 -187 -1 -137 -5 -196 -18 -237 -40 -136 -127
-234 -356 -403 -255 -189 -328 -247 -398 -321 -38 -40 -74 -86 -79 -103 -14
-40 6 -86 49 -113 42 -26 99 -22 416 31 394 66 658 141 873 250 45 22 122 43
293 79 279 58 402 89 727 180 485 137 778 200 989 212 l54 3 13 -112 c25 -221
71 -346 181 -483 81 -102 476 -476 546 -519 119 -71 169 -85 301 -85 127 0
155 7 321 78 34 14 90 33 125 42 35 9 68 22 72 30 4 8 15 14 24 14 74 0 738
227 999 341 191 84 602 369 778 540 l59 58 50 -11 c71 -15 192 -6 248 19 98
44 169 135 207 268 37 127 46 220 45 462 l-2 231 31 47 c34 51 60 74 223 197
119 90 173 156 216 265 19 49 23 77 24 178 0 144 -22 227 -91 331 -24 37 -43
68 -42 70 21 18 116 27 333 31 279 4 308 9 437 74 98 48 151 82 314 201 74 54
209 138 311 193 177 96 280 162 270 172 -14 13 -79 -16 -200 -89 -244 -149
-381 -196 -872 -303 -339 -73 -591 -146 -660 -191 -18 -12 -26 -10 -60 13 -46
32 -155 73 -190 73 -32 0 -32 18 0 26 20 5 57 34 43 34 -2 0 -38 -11 -78 -25
-57 -20 -94 -25 -166 -25 -225 0 -618 -101 -1019 -262 -82 -33 -260 -116 -395
-184 -286 -144 -364 -170 -495 -161 -84 5 -205 27 -205 37 0 3 16 14 35 24 44
24 75 73 75 117 0 44 -59 141 -96 158 -18 8 -49 10 -88 6 l-61 -7 -32 121 -32
121 21 46 c11 26 24 72 30 103 23 137 47 1530 29 1736 -31 355 -88 630 -187
904 -56 154 -153 341 -292 563 -155 248 -208 350 -227 443 -22 106 -19 164 27
427 42 241 42 245 42 483 0 185 -6 282 -23 424 -12 102 -25 189 -28 194 -4 6
6 7 23 3 105 -25 177 -30 247 -18 106 19 168 52 256 136 42 40 108 94 147 120
68 44 88 66 148 164 14 23 30 42 34 42 4 0 6 -30 4 -67 -4 -85 15 -117 106
-179 96 -66 137 -70 676 -65 137 1 297 -1 355 -5 211 -13 297 19 447 170 100
101 158 174 199 256 29 56 65 154 65 175 0 11 -60 45 -79 45 -5 0 -23 -22 -41
-50 -18 -27 -66 -82 -108 -121 -122 -114 -298 -190 -547 -235 -151 -28 -504
-26 -635 3 -201 44 -224 82 -125 209 25 32 50 74 56 95 50 166 -332 283 -485
148 -39 -34 -52 -66 -60 -158 -3 -36 -13 -72 -21 -81 -9 -10 -61 -41 -116 -71
-131 -70 -208 -134 -254 -209 l-36 -60 -37 16 c-35 15 -170 63 -239 85 -36 11
-47 26 -58 79 -7 34 -6 35 10 13 22 -32 50 -29 157 14 114 46 160 86 276 243
166 223 227 271 402 314 227 56 315 68 541 73 233 6 388 -5 545 -37 124 -26
234 -26 337 1 92 23 292 86 318 99 9 5 56 78 104 162 48 83 105 175 126 203
41 54 65 112 71 167 l3 33 -51 3 -52 3 -45 -83z m-4352 -8242 c210 -32 391
-91 474 -152 1 -2 -27 -41 -64 -88 -134 -172 -216 -216 -588 -311 -253 -66
-319 -92 -564 -223 -226 -122 -352 -178 -358 -159 -2 6 -11 94 -21 193 -15
152 -15 195 -5 267 37 269 218 444 506 491 65 10 522 -3 620 -18z m3855 -813
c0 -11 -303 -236 -445 -331 -170 -114 -626 -377 -820 -474 -86 -43 -298 -138
-309 -138 -3 0 -30 30 -60 66 -47 55 -56 71 -56 104 0 26 7 47 23 64 25 29
393 234 650 362 369 186 754 328 927 344 41 4 78 8 83 8 4 1 7 -1 7 -5z"/>
<path d="M12511 3929 c-14 -6 -94 -50 -178 -100 -84 -50 -181 -100 -214 -110
-75 -23 -231 -44 -489 -64 -319 -25 -464 -57 -597 -131 -60 -33 -168 -113
-161 -119 2 -2 41 5 88 15 47 10 211 33 365 50 600 67 747 109 1016 292 89 60
208 162 199 171 -3 2 -16 1 -29 -4z"/>
</g>
</svg>
