<?xml version="1.0" standalone="no"?>
<!DOCTYPE svg PUBLIC "-//W3C//DTD SVG 20010904//EN"
 "http://www.w3.org/TR/2001/REC-SVG-20010904/DTD/svg10.dtd">
<svg version="1.0" xmlns="http://www.w3.org/2000/svg"
 width="300.000000pt" height="300.000000pt" viewBox="0 0 300.000000 300.000000"
 preserveAspectRatio="xMidYMid meet">
<metadata>
Created by potrace 1.10, written by Peter Selinger 2001-2011
</metadata>
<g transform="translate(0.000000,300.000000) scale(0.100000,-0.100000)"
fill="#000000" stroke="none">
<path d="M864 2775 c-11 -29 24 -199 61 -301 l36 -93 -36 -71 c-37 -74 -65
-175 -88 -323 l-14 -88 33 -14 c52 -21 265 -63 394 -76 159 -17 386 -15 569 5
173 19 216 27 315 58 l68 22 -6 58 c-12 98 -65 297 -98 363 l-31 63 26 55 c14
30 33 78 42 108 19 66 45 231 38 243 -7 11 -33 -22 -33 -43 0 -25 -87 -193
-120 -234 l-32 -37 -34 30 c-58 51 -230 128 -302 136 -13 1 -53 -10 -90 -26
l-66 -28 -54 24 c-30 13 -56 24 -57 24 -1 0 -14 -27 -29 -59 -29 -64 -66 -199
-66 -238 0 -15 -5 -23 -12 -20 -33 11 8 185 63 272 16 25 29 48 29 50 0 7
-135 -42 -190 -70 -30 -15 -74 -41 -98 -58 -26 -19 -46 -27 -50 -21 -4 5 -21
30 -38 54 -41 59 -79 134 -95 190 -15 55 -26 69 -35 45z m1270 -158 c-9 -37
-20 -65 -25 -61 -5 3 -9 -11 -9 -30 0 -19 -4 -38 -10 -41 -5 -3 -15 -25 -21
-48 -11 -39 -13 -40 -20 -17 l-7 25 -1 -28 c-1 -30 -28 -103 -36 -95 -3 2 0
20 5 39 6 18 9 45 9 59 -1 20 -2 21 -6 5 -19 -86 -35 -141 -45 -152 -18 -22
-18 -11 -3 42 8 26 15 55 15 64 0 28 -20 -10 -20 -39 0 -27 -47 -136 -55 -128
-3 3 2 24 10 48 8 23 15 54 14 69 0 17 -5 9 -13 -24 -13 -53 -44 -120 -52
-112 -3 2 0 16 6 31 5 15 10 42 9 59 -1 31 -1 31 -10 -8 -13 -56 -39 -113 -55
-119 -17 -6 -16 -7 -5 30 18 56 22 86 11 79 -5 -3 -10 -15 -10 -26 0 -29 -40
-109 -55 -109 -10 0 -10 9 2 42 8 22 11 48 7 57 -5 10 -10 -1 -15 -32 -7 -46
-31 -87 -51 -87 -5 0 -7 23 -4 51 3 28 2 48 -2 45 -3 -4 -12 8 -19 25 -7 18
-12 33 -11 34 2 0 30 9 63 19 159 48 309 175 380 323 22 45 41 81 42 79 1 -1
-5 -32 -13 -69z m-1138 -117 c21 -27 65 -72 99 -99 61 -49 194 -121 226 -121
26 0 28 -10 8 -43 -10 -18 -19 -48 -19 -66 0 -46 -15 -30 -28 29 -7 30 -10 37
-11 19 -1 -14 4 -40 10 -58 6 -18 9 -34 6 -37 -9 -9 -39 43 -58 99 -11 32 -18
43 -18 29 -1 -12 6 -39 14 -59 8 -20 13 -38 11 -41 -18 -17 -65 74 -66 126 0
17 -4 32 -10 32 -10 0 -5 -44 11 -94 5 -16 7 -31 5 -34 -8 -8 -45 76 -52 117
-4 23 -10 41 -14 41 -9 0 6 -74 21 -102 17 -31 3 -33 -17 -2 -10 15 -26 57
-36 93 -11 43 -17 56 -17 36 0 -16 6 -47 13 -67 8 -21 10 -38 6 -38 -10 0 -38
71 -50 130 -9 44 -9 44 -5 -15 4 -58 3 -59 -10 -30 -8 17 -14 39 -15 50 0 15
-2 17 -9 7 -10 -16 -31 34 -32 77 0 21 -2 23 -8 8 -5 -13 -13 2 -28 55 -39
133 -39 151 1 75 19 -37 51 -90 72 -117z m705 58 c26 -51 72 -215 65 -233 -12
-31 -23 -12 -38 63 -9 43 -28 107 -43 142 -14 36 -29 74 -31 85 -5 20 -5 20
11 0 9 -11 25 -37 36 -57z m-67 10 c17 -27 52 -144 62 -205 6 -39 4 -43 -21
-55 -20 -9 -30 -9 -43 0 -68 48 -156 56 -226 22 -64 -33 -80 -23 -72 43 8 59
40 166 59 191 11 15 18 16 59 5 40 -11 54 -10 95 3 65 22 70 21 87 -4z m-354
-15 c-2 -25 -58 -177 -66 -180 -12 -4 -124 74 -124 87 0 4 21 21 48 37 83 52
143 75 142 56z m555 -24 c33 -16 70 -39 82 -51 26 -25 22 -34 -41 -80 -50 -36
-74 -36 -82 0 -3 15 -17 57 -30 95 -28 81 -22 84 71 36z m-795 -268 c74 -76
173 -143 196 -134 11 4 15 3 11 -4 -4 -7 6 -16 25 -22 22 -7 43 -26 61 -55 27
-43 107 -96 146 -96 11 0 9 -6 -7 -23 -23 -24 -29 -61 -12 -72 22 -13 8 -25
-29 -25 -58 0 -72 8 -65 36 15 57 -33 109 -76 82 -30 -19 -44 -52 -31 -75 5
-11 8 -23 6 -25 -6 -5 -97 2 -104 8 -2 2 2 17 9 34 12 28 11 33 -10 55 -13 14
-34 25 -46 25 -28 0 -66 -47 -59 -72 5 -15 1 -18 -27 -18 -47 0 -60 12 -52 44
9 36 -27 76 -69 76 -28 0 -29 1 -22 43 13 83 36 163 62 220 15 31 28 57 31 57
2 0 30 -26 62 -59z m539 38 c74 -41 106 -127 76 -204 -56 -147 -255 -146 -311
1 -53 140 105 277 235 203z m504 -41 c28 -72 61 -222 53 -244 -3 -8 -11 -14
-19 -14 -7 0 -24 -11 -37 -25 -17 -18 -21 -31 -17 -53 5 -26 3 -30 -30 -40
-42 -13 -53 -9 -46 16 6 25 -34 72 -61 72 -12 0 -33 -11 -46 -25 -21 -22 -22
-28 -11 -51 15 -34 3 -44 -57 -44 -40 0 -42 1 -31 21 14 27 -3 62 -38 78 -21
10 -28 8 -54 -19 -29 -29 -29 -30 -14 -60 8 -16 14 -30 13 -30 -2 -1 -31 -4
-66 -7 l-63 -6 7 37 c5 31 2 41 -16 61 l-23 24 27 11 c15 5 29 10 32 10 14 0
68 49 85 77 12 18 27 33 35 33 8 0 22 4 32 9 9 5 38 19 64 30 61 27 157 100
205 156 21 24 41 44 44 45 4 0 18 -28 32 -62z m-1143 -298 c12 -7 12 -13 4
-27 -23 -38 -66 -19 -50 22 6 17 24 19 46 5z m1208 -18 c4 -28 -24 -40 -45
-19 -14 13 -14 19 -3 32 18 22 44 15 48 -13z m-1008 -17 c10 -12 10 -18 0 -30
-25 -30 -61 -7 -46 30 3 8 12 15 19 15 8 0 20 -7 27 -15z m810 0 c10 -12 10
-18 0 -30 -25 -30 -61 -7 -46 30 3 8 12 15 19 15 8 0 20 -7 27 -15z m-610 -30
c0 -20 -5 -25 -24 -25 -13 0 -26 6 -29 13 -7 22 4 37 29 37 19 0 24 -5 24 -25z
m415 0 c0 -22 -31 -33 -47 -17 -17 17 -1 44 24 40 15 -2 23 -10 23 -23z m-220
-10 c0 -22 -31 -33 -47 -17 -17 17 -1 44 24 40 15 -2 23 -10 23 -23z"/>
<path d="M1419 2277 c-122 -81 -64 -273 82 -271 56 1 90 21 127 74 62 91 -13
220 -128 220 -32 0 -58 -7 -81 -23z m53 -3 c-29 -20 -28 -42 2 -54 13 -5 27
-13 30 -18 8 -13 -28 -22 -45 -11 -36 23 -89 -2 -89 -41 0 -20 25 -50 41 -50
5 0 14 11 19 24 5 13 13 27 19 30 16 10 23 -31 9 -53 -11 -18 -10 -26 2 -49
19 -34 50 -39 74 -13 22 24 15 51 -14 51 -11 0 -20 7 -20 15 0 18 20 19 54 4
49 -23 101 42 64 79 -19 19 -46 14 -50 -10 -5 -36 -24 -31 -43 11 -10 23 -26
43 -36 46 -23 8 -25 23 -4 31 23 9 45 -15 45 -50 1 -27 2 -28 11 -13 15 26 2
66 -24 77 -20 8 -21 9 -2 9 11 1 35 -8 53 -19 103 -63 90 -203 -23 -246 -43
-16 -47 -16 -90 0 -67 26 -107 96 -91 160 8 31 53 85 80 96 36 15 52 11 28 -6z
m-25 -101 c-10 -3 -23 -16 -28 -31 -9 -23 -11 -24 -26 -9 -23 22 -1 47 41 46
18 -1 23 -3 13 -6z m168 -18 c0 -12 -10 -23 -27 -29 -32 -11 -51 1 -25 15 9 6
17 17 17 25 0 9 7 14 18 12 9 -2 17 -12 17 -23z m-98 -85 c8 0 13 -6 11 -12
-3 -7 -16 -13 -29 -13 -20 0 -24 5 -26 35 -3 35 -3 35 13 13 9 -13 23 -23 31
-23z"/>
<path d="M1454 2705 c-3 -14 -17 -34 -30 -44 l-23 -18 42 -17 c52 -20 61 -19
117 3 l44 18 -32 17 c-18 9 -34 27 -38 41 -5 20 -12 25 -40 25 -28 0 -35 -5
-40 -25z"/>
<path d="M588 1996 c-26 -7 -62 -25 -82 -39 -42 -33 -123 -154 -201 -300 l-57
-108 29 -37 c16 -20 49 -51 74 -67 42 -29 236 -112 243 -104 2 2 6 13 10 24 5
18 -1 23 -41 34 -27 6 -90 32 -141 56 l-93 44 59 88 c32 48 62 95 67 103 18
30 -23 -11 -81 -81 -31 -38 -59 -68 -61 -65 -3 3 26 49 64 103 38 54 91 131
117 171 l48 74 26 -25 c15 -13 39 -32 53 -41 23 -15 28 -15 39 -1 10 13 8 19
-14 36 -30 24 -62 79 -46 79 6 0 25 -7 42 -16 34 -18 40 -14 61 37 l15 37 -30
6 c-39 8 -43 7 -100 -8z"/>
<path d="M2280 1995 c0 -10 32 -85 36 -85 3 0 23 9 44 20 50 26 55 7 10 -43
-22 -26 -26 -37 -18 -45 18 -18 32 -15 65 18 l31 31 115 -168 c63 -92 112
-170 110 -172 -2 -3 -20 15 -41 40 -94 111 -119 129 -61 44 14 -22 41 -62 59
-88 l31 -48 -93 -44 c-51 -24 -114 -50 -141 -56 -40 -11 -46 -16 -41 -34 9
-29 8 -29 68 -6 131 49 191 82 239 133 l47 50 -66 127 c-96 186 -161 273 -225
305 -39 19 -68 26 -111 26 -32 0 -58 -2 -58 -5z"/>
<path d="M714 1851 c-80 -78 -103 -154 -62 -206 89 -113 710 -197 1139 -155
264 26 495 82 566 136 29 22 33 31 33 70 0 25 -7 59 -16 76 -23 43 -94 118
-113 118 -9 0 -49 -13 -89 -30 -137 -56 -371 -85 -672 -84 -306 1 -514 30
-667 92 l-72 30 -47 -47z m86 -20 c0 -10 -50 -25 -57 -17 -3 2 -2 9 2 15 8 13
55 15 55 2z m1480 -6 c13 -16 8 -18 -27 -9 -13 4 -23 10 -23 15 0 15 37 10 50
-6z m-1454 -44 c-28 -52 -21 -77 27 -105 23 -13 53 -27 67 -31 20 -5 16 2 -23
37 -46 41 -48 45 -45 90 l3 46 40 -14 c22 -7 87 -20 145 -29 58 -8 119 -17
135 -19 17 -2 41 -5 55 -5 39 -2 56 -16 41 -35 -21 -25 26 -31 249 -30 222 1
267 8 262 41 -3 18 4 22 50 28 185 24 242 34 288 50 77 27 92 21 119 -55 15
-44 -3 -69 -76 -102 l-67 -30 24 -18 24 -18 -55 -11 c-30 -5 -72 -13 -94 -16
-22 -3 -50 -8 -62 -11 -16 -3 -23 0 -23 11 0 19 7 19 -103 -7 -126 -30 -414
-32 -560 -5 -64 13 -102 16 -110 9 -7 -5 -21 -8 -32 -7 -201 29 -222 35 -191
58 17 13 14 16 -50 48 -64 32 -69 36 -72 69 -1 22 5 48 18 69 26 41 38 35 16
-8z m-45 -9 c-17 -31 -13 -77 7 -95 10 -9 39 -26 66 -37 59 -27 55 -37 -5 -14
-72 28 -99 51 -99 85 0 31 27 95 37 86 2 -3 0 -14 -6 -25z m1490 -18 c19 -41
19 -47 5 -69 -17 -25 -120 -79 -139 -72 -7 2 11 14 40 26 68 30 87 51 81 93
-3 18 -8 41 -13 51 -4 9 -4 17 -1 17 4 0 16 -21 27 -46z m-1532 -2 c-21 -62
-10 -84 61 -120 70 -36 37 -36 -38 0 -60 29 -70 53 -43 113 23 52 38 57 20 7z
m1576 -12 c14 -31 16 -45 7 -64 -11 -24 -75 -60 -127 -71 -19 -4 -6 5 33 25
81 41 90 62 56 144 -15 37 12 7 31 -34z m-546 -5 c-14 -13 -161 -35 -239 -35
-105 0 -240 18 -240 32 0 6 8 7 18 3 36 -15 306 -17 382 -3 71 13 89 14 79 3z"/>
<path d="M2180 1770 c0 -41 -4 -49 -47 -87 -55 -48 -41 -55 32 -15 48 27 50
29 49 70 0 26 -8 50 -17 60 -16 15 -17 13 -17 -28z"/>
<path d="M1761 1683 c-112 -32 -345 -35 -479 -5 -43 10 -56 5 -44 -15 11 -17
252 -36 357 -29 108 8 217 24 227 34 3 4 1 12 -5 17 -9 8 -25 7 -56 -2z"/>
<path d="M1824 1650 c-12 -5 -68 -16 -124 -26 -117 -19 -317 -15 -428 9 -50
11 -64 11 -73 1 -7 -9 -5 -14 9 -18 33 -11 215 -25 317 -26 105 0 313 24 326
37 15 15 -5 31 -27 23z"/>
<path d="M1805 1597 c-132 -36 -447 -33 -626 5 -8 2 -14 -4 -14 -12 0 -36 419
-54 608 -25 110 16 136 26 115 41 -9 7 -36 4 -83 -9z"/>
<path d="M529 1793 c-21 -43 -22 -49 -8 -35 33 31 24 2 -41 -125 -38 -75 -70
-138 -70 -140 0 -5 71 -33 143 -59 l69 -23 48 52 c26 29 60 59 74 66 29 16 34
31 11 31 -26 0 -113 48 -129 72 -18 25 -21 84 -7 122 9 22 6 27 -25 45 -45 27
-48 26 -65 -6z m51 -132 c7 -28 26 -53 60 -83 l50 -44 -39 -38 c-33 -32 -45
-38 -68 -33 -45 9 -103 37 -109 51 -7 18 76 186 92 186 2 0 8 -18 14 -39z"/>
<path d="M2408 1806 c-16 -11 -16 -16 -2 -56 34 -99 -17 -159 -175 -206 -9 -3
3 -15 30 -33 24 -15 58 -44 76 -64 l32 -37 97 35 c54 19 102 39 107 44 6 6
-17 61 -61 145 -64 126 -75 155 -44 124 17 -17 15 -1 -5 33 -19 32 -29 35 -55
15z m82 -218 c17 -35 30 -68 30 -74 0 -13 -59 -39 -111 -49 -30 -5 -38 -2 -67
28 l-33 34 49 31 c27 17 59 44 71 61 12 17 24 31 27 31 3 0 18 -28 34 -62z"/>
<path d="M756 1509 c-65 -43 -121 -117 -135 -176 -19 -82 -41 -363 -28 -363 2
0 42 25 88 56 104 70 187 110 201 96 6 -6 -13 -20 -55 -40 -69 -32 -204 -119
-226 -146 -24 -29 -30 -17 -33 60 l-3 77 -42 -41 c-23 -23 -47 -58 -53 -79 -6
-21 -14 -105 -17 -186 l-6 -148 69 52 c97 74 191 115 303 134 65 12 97 13 104
6 13 -13 6 -15 -98 -31 -138 -21 -248 -76 -351 -174 -26 -25 -50 -46 -52 -46
-3 0 -2 36 0 79 l5 80 -26 -18 c-71 -51 -89 -106 -98 -300 -7 -150 -12 -143
67 -82 65 49 191 108 274 126 39 9 150 24 246 34 l175 18 90 -88 c127 -124
132 -127 222 -140 93 -13 279 -5 325 14 18 8 78 58 133 112 114 112 81 104
310 79 236 -25 362 -68 483 -163 28 -23 54 -41 58 -41 10 0 -3 214 -17 296 -9
53 -19 75 -46 105 -20 22 -40 39 -46 39 -6 0 -8 -26 -4 -75 4 -41 4 -75 1 -75
-3 0 -15 11 -25 24 -28 36 -149 123 -210 151 -57 25 -179 55 -230 55 -20 0
-29 5 -29 16 0 12 8 14 48 9 152 -21 242 -58 358 -145 l67 -52 -6 134 c-8 187
-20 234 -70 281 -22 20 -44 37 -49 37 -4 0 -8 -34 -8 -76 l0 -76 -35 26 c-63
48 -152 105 -209 133 -64 31 -81 64 -20 38 46 -19 143 -78 200 -121 l44 -34
-6 108 c-15 294 -30 340 -139 417 l-64 46 -63 -12 c-35 -7 -65 -14 -67 -16 -2
-1 7 -15 21 -31 30 -36 64 -184 54 -236 -5 -25 -23 -51 -63 -88 -30 -29 -68
-73 -84 -97 l-29 -45 0 45 c-1 24 -7 61 -14 82 -10 27 -11 37 -3 34 7 -2 17
-21 24 -43 6 -21 12 -32 12 -24 1 8 -3 30 -8 48 -6 19 -6 32 0 32 5 0 11 -10
13 -22 12 -56 15 -60 11 -14 -6 54 2 56 16 4 7 -28 8 -26 3 12 -5 42 7 48 19
10 2 -8 3 -3 1 13 -4 30 12 38 19 10 2 -10 3 -6 2 10 -1 15 2 27 7 27 4 0 8
-6 8 -14 0 -8 3 -17 8 -19 9 -6 14 90 11 203 l-1 55 -9 -44 c-4 -23 -11 -53
-14 -65 -5 -17 -4 -18 4 -6 8 12 11 8 11 -17 0 -70 -72 -113 -213 -129 -34 -4
-70 -11 -80 -16 -23 -12 -40 -56 -32 -86 9 -37 28 -14 21 27 -4 22 -3 31 2 23
7 -11 10 -10 16 3 6 18 26 12 26 -8 0 -8 -3 -8 -9 1 -6 10 -10 7 -15 -13 -4
-15 -5 -30 -1 -33 3 -3 5 3 5 14 0 15 2 16 9 5 6 -10 11 -5 16 20 5 19 10 28
13 21 3 -10 8 -8 18 5 12 16 13 15 14 -15 0 -50 -24 -93 -92 -162 -33 -34 -66
-77 -74 -97 -23 -54 -84 -77 -204 -77 -123 0 -181 23 -205 81 -9 21 -42 63
-73 93 -64 61 -92 111 -92 162 1 30 2 31 14 15 10 -13 15 -15 18 -5 3 7 8 -2
13 -21 5 -25 10 -30 16 -20 7 11 9 10 9 -5 0 -11 2 -17 5 -14 4 3 3 18 -1 33
-5 20 -9 23 -15 13 -6 -9 -9 -9 -9 -1 0 20 18 24 29 6 8 -14 11 -15 11 -3 1
10 4 9 10 -5 12 -27 12 -43 0 -25 -8 12 -10 11 -10 -7 0 -27 16 -38 24 -17 23
59 -16 98 -105 108 -147 16 -219 58 -219 129 0 25 3 29 10 17 11 -16 11 -14
-9 75 l-9 40 -1 -55 c-2 -74 -2 -116 0 -169 l2 -43 14 28 13 29 -4 -40 c-4
-39 -4 -39 8 -12 15 35 27 25 16 -14 -5 -18 -5 -27 1 -24 5 4 9 15 9 26 0 10
4 19 9 19 6 0 8 -15 7 -32 -2 -18 -1 -24 1 -13 9 38 21 37 18 -1 -2 -31 -1
-33 4 -10 7 32 19 40 39 28 10 -7 10 -15 2 -36 -5 -15 -10 -48 -11 -74 l0 -47
-17 25 c-9 14 -42 51 -74 83 -77 77 -92 107 -83 166 14 97 39 165 69 191 l29
25 -54 11 c-30 6 -65 14 -79 18 -19 5 -37 -1 -74 -25z m97 -18 l24 -10 -17
-53 c-30 -87 -39 -172 -23 -215 7 -21 13 -41 13 -46 0 -8 -102 -57 -121 -57
-6 0 -27 9 -45 21 -32 19 -34 20 -34 2 0 -32 16 -46 44 -39 14 3 26 2 26 -3 0
-9 -34 -21 -63 -21 -16 0 -17 10 -14 123 2 80 9 134 19 157 19 44 83 114 123
134 35 19 37 19 68 7z m1380 -32 c79 -52 103 -97 113 -211 5 -65 4 -76 -15
-100 -39 -49 -86 -47 -180 9 -2 1 5 23 15 48 15 41 16 54 5 113 -7 37 -19 86
-27 110 -8 24 -12 48 -9 53 12 18 52 9 98 -22z m122 -353 c-8 -39 -8 -39 -54
-30 -43 9 -39 24 4 17 32 -5 35 -4 35 19 0 24 9 42 17 34 2 -2 1 -20 -2 -40z
m-267 -81 c0 -41 -2 -45 -9 -25 -6 19 -7 14 -4 -20 3 -25 0 -70 -5 -100 -6
-30 -13 -74 -17 -98 -9 -64 -23 -61 -24 5 -1 79 -6 57 -14 -59 -4 -62 -12
-103 -22 -115 -14 -17 -14 -16 -8 7 23 94 27 450 4 370 -5 -20 -7 -21 -7 -5 0
11 3 29 8 40 8 21 13 15 23 -30 3 -11 5 -1 6 22 1 44 16 66 24 36 3 -13 5 -12
6 5 0 13 6 33 13 45 l12 22 7 -25 c4 -14 7 -47 7 -75z m-1144 73 c9 -9 12 -50
11 -138 -2 -116 -1 -120 6 -50 5 41 6 95 3 119 -4 33 -3 42 8 39 9 -4 12 -21
11 -54 l-3 -49 13 40 c10 32 14 36 20 22 4 -10 8 -42 8 -70 l2 -52 7 40 7 40
2 -42 c0 -23 5 -53 11 -67 5 -15 6 -26 0 -26 -4 0 -11 8 -13 18 -3 9 -5 2 -6
-15 0 -18 -5 -33 -11 -33 -6 0 -11 38 -11 93 l-1 92 -9 -60 c-8 -54 2 -243 16
-320 l6 -30 -16 28 c-10 16 -19 68 -24 125 -5 56 -9 77 -10 50 -3 -107 -33
-16 -32 97 0 39 -2 46 -9 30 -7 -14 -9 -3 -5 40 3 41 2 54 -4 40 -8 -17 -10
-16 -10 11 -1 35 9 94 16 94 2 0 10 -6 17 -12z m992 -63 c12 -33 15 -62 11
-106 -6 -66 -12 -78 -28 -62 -8 8 -8 17 0 31 12 23 14 74 5 110 -6 21 -8 19
-35 -20 -46 -70 -75 -100 -93 -96 -14 2 -7 16 33 66 28 35 54 75 57 90 14 55
25 53 50 -13z m-832 20 c3 -13 33 -55 66 -92 33 -37 60 -70 60 -74 0 -4 -10
-4 -23 -1 -26 8 -87 72 -110 117 l-15 30 -8 -40 c-4 -22 -2 -57 4 -79 8 -31 8
-43 -1 -48 -28 -17 -36 110 -11 172 19 46 29 50 38 15z m-217 -86 c7 -50 10
-96 7 -103 -3 -8 -24 -16 -47 -20 -23 -3 -59 -9 -79 -12 l-38 -6 1 38 c1 33 2
35 8 14 7 -26 31 -36 58 -25 14 5 13 8 -6 21 -14 10 -20 22 -16 34 5 16 2 17
-32 9 -21 -5 -41 -9 -45 -9 -5 0 -8 19 -7 43 l1 42 11 -30 c10 -26 16 -30 44
-27 l33 3 -27 23 -27 23 40 25 c109 68 107 69 121 -43z m1301 64 c15 -9 37
-22 49 -30 24 -14 22 -43 -3 -43 -8 0 -14 -4 -14 -10 0 -5 15 -10 34 -10 28 0
35 4 39 23 3 13 5 8 6 -15 1 -42 2 -41 -51 -29 -30 7 -35 6 -31 -6 7 -19 -44
-62 -74 -63 -24 0 -42 24 -37 49 1 9 8 46 15 84 12 73 20 79 67 50z m-1028
-131 c0 -19 -29 -2 -36 21 -7 21 -8 21 -19 -7 l-12 -28 -6 23 c-4 13 -7 39 -7
56 l0 33 40 -44 c22 -24 40 -48 40 -54z m755 22 c-8 -43 -23 -53 -18 -11 l4
32 -20 -25 c-11 -14 -21 -20 -21 -15 0 6 -5 3 -10 -5 -8 -12 -10 -12 -10 -1 0
8 17 32 38 55 31 34 38 38 40 22 2 -10 1 -34 -3 -52z m594 14 c5 -29 12 -101
15 -161 l6 -108 -53 40 c-65 49 -97 65 -172 87 -33 9 -54 19 -47 22 25 8 101
-9 148 -34 55 -29 44 -9 -20 38 -21 15 -35 28 -30 28 14 0 76 -39 108 -69 26
-23 27 -24 17 -4 -21 41 -151 121 -151 93 0 -5 -7 -10 -15 -10 -8 0 -15 5 -15
12 0 15 30 48 44 48 6 0 5 -4 -3 -9 -11 -7 0 -16 44 -36 33 -14 70 -36 82 -47
13 -12 23 -20 23 -17 0 2 -7 29 -15 59 -15 58 -19 87 -9 78 3 -4 12 -28 19
-55 l14 -48 -6 73 c-3 39 -3 72 0 72 3 0 10 -24 16 -52z m-2002 -25 l-6 -68
14 48 c25 92 34 71 10 -27 l-14 -58 23 21 c13 12 49 33 81 46 50 20 55 24 39
34 -11 6 -14 11 -8 11 6 0 17 -6 23 -14 13 -15 1 -29 -35 -40 -33 -10 -101
-62 -115 -87 -9 -18 -2 -15 32 13 49 39 88 62 95 55 3 -3 -10 -14 -29 -26 -18
-11 -42 -30 -53 -42 -17 -20 -15 -19 34 5 48 24 152 47 152 33 0 -3 -30 -14
-67 -26 -63 -19 -118 -49 -186 -101 l-27 -22 6 104 c6 106 21 208 31 208 3 0
3 -30 0 -67z m1480 -2 c12 -8 4 -93 -8 -85 -5 3 -9 15 -10 27 0 20 -1 21 -8 3
-4 -11 -10 -15 -14 -10 -3 6 -2 16 4 24 5 8 9 38 10 65 1 47 1 48 9 16 4 -18
12 -36 17 -40z m283 -40 c0 -17 -4 -33 -10 -36 -14 -8 -80 5 -80 17 0 5 15 6
35 2 33 -6 35 -5 35 20 0 14 5 26 10 26 6 0 10 -13 10 -29z m-955 -37 c78 -38
83 -39 185 -39 102 0 107 1 185 40 69 35 89 40 147 40 63 0 69 -2 102 -34 85
-83 66 -195 -44 -255 -47 -26 -50 -26 -50 -8 0 12 14 28 35 41 101 59 95 191
-10 228 -44 15 -50 14 -163 -34 -137 -57 -278 -56 -411 4 -114 51 -157 50
-205 -8 -53 -63 -40 -137 35 -187 18 -13 37 -32 41 -43 7 -18 6 -18 -30 -3
-69 28 -122 97 -122 157 0 13 10 43 23 67 48 92 142 103 282 34z m-134 -22
c-6 -12 -11 -24 -11 -29 1 -4 8 4 16 20 12 23 19 26 42 21 15 -4 31 -10 35
-14 11 -10 -14 -61 -26 -53 -6 3 -7 1 -4 -4 4 -6 3 -24 -2 -39 -5 -16 -12 -42
-16 -57 -5 -25 -8 -27 -23 -15 -15 12 -16 11 -4 -4 8 -10 12 -34 10 -60 l-4
-43 -13 30 c-21 50 -33 137 -26 189 6 50 22 92 32 83 2 -3 0 -14 -6 -25z m665
-49 c6 -43 -1 -138 -13 -156 -3 -5 -9 -3 -14 4 -6 10 -9 10 -9 2 0 -6 4 -14 9
-17 10 -6 2 -56 -9 -56 -4 0 -10 26 -14 58 -6 50 -25 115 -51 176 -7 16 -6 17
13 7 12 -7 22 -9 22 -7 0 3 -12 12 -27 20 l-28 14 28 11 c50 19 50 19 49 -69
-1 -31 0 -32 7 -10 l7 25 8 -29 c4 -15 9 -26 12 -24 2 3 -3 24 -11 48 -8 23
-15 52 -15 64 1 20 1 20 15 2 8 -10 17 -39 21 -63z m54 -9 c7 -17 7 -31 0 -42
-8 -14 -10 -14 -10 -2 -1 8 -3 27 -5 43 -5 34 3 35 15 1z m-546 -5 c5 -5 8
-10 5 -11 -2 -2 -23 -13 -46 -26 -40 -21 -43 -21 -43 -5 0 33 29 65 53 57 12
-3 26 -10 31 -15z m371 -26 c8 -35 1 -39 -33 -14 -17 12 -35 21 -42 21 -21 0
-4 24 21 31 29 7 45 -4 54 -38z m-791 15 c9 -12 16 -38 16 -56 0 -30 -2 -33
-22 -26 -13 3 -31 13 -40 22 -17 14 -18 13 -18 -18 0 -32 1 -32 40 -28 22 2
40 0 40 -4 0 -5 5 -8 12 -8 19 0 58 -42 58 -62 0 -21 -3 -22 -46 -6 -38 13
-50 34 -33 54 13 16 8 17 -43 5 l-37 -9 -6 40 c-7 38 -8 39 -26 22 -18 -16
-20 -16 -42 4 l-23 22 4 -35 c4 -34 6 -35 46 -35 45 -1 34 -13 -20 -23 -31 -6
-32 -5 -38 36 -7 37 -9 40 -20 25 -7 -10 -19 -18 -26 -18 -7 0 -19 8 -27 18
-12 15 -13 13 -11 -18 3 -34 4 -35 43 -32 49 5 37 -13 -16 -23 l-36 -7 -7 44
-7 43 -18 -23 c-15 -20 -19 -21 -29 -9 -9 11 -8 17 6 29 31 28 85 51 167 72
114 30 140 31 159 4z m1318 -10 c80 -21 104 -37 94 -63 -9 -24 -37 -31 -48
-11 -14 24 -28 10 -28 -29 0 -33 -1 -34 -32 -28 -54 10 -68 22 -27 23 36 0 49
12 49 46 0 12 -4 12 -24 -1 -21 -14 -25 -14 -36 0 -18 22 -30 9 -30 -32 0 -26
-4 -34 -14 -30 -8 3 -32 9 -53 13 -38 7 -38 7 -20 -14 19 -20 18 -21 -23 -47
-72 -46 -103 -12 -48 53 15 18 28 40 28 50 0 9 9 36 20 59 l19 43 48 -6 c26
-3 83 -15 125 -26z m-722 -8 c0 -5 -13 -10 -30 -10 -16 0 -30 5 -30 10 0 6 14
10 30 10 17 0 30 -4 30 -10z m-81 -40 l50 -20 55 21 c69 27 94 21 154 -35 26
-23 55 -46 65 -49 21 -8 23 -37 1 -37 -23 0 -55 19 -101 61 -47 43 -92 51
-127 24 -11 -8 -32 -15 -46 -15 -14 0 -35 7 -46 15 -35 27 -80 19 -127 -24
-69 -62 -117 -80 -117 -41 0 11 7 20 15 20 9 0 37 20 63 44 69 63 84 67 161
36z m921 -56 l0 -46 -37 7 c-52 9 -71 29 -21 22 36 -5 38 -4 44 29 9 47 14 43
14 -12z m-1759 -30 c16 3 29 2 29 -3 0 -8 -69 -26 -75 -19 -4 4 -8 60 -5 73 1
6 6 -5 11 -24 9 -30 13 -33 40 -27z m845 31 c10 -8 30 -14 44 -14 14 0 34 6
44 14 22 16 73 20 94 6 11 -7 11 -15 -2 -46 -21 -50 -13 -57 12 -9 27 54 35
28 8 -29 -13 -26 -19 -47 -14 -47 4 0 16 17 25 38 23 48 22 47 34 35 17 -17
-70 -176 -91 -168 -68 27 -152 27 -220 0 -12 -4 -27 15 -59 75 -38 71 -44 101
-23 100 4 0 15 -18 25 -40 10 -22 23 -40 29 -40 7 0 7 4 0 13 -19 23 -41 87
-32 92 5 3 16 -10 24 -30 8 -19 19 -35 24 -35 5 0 0 18 -11 41 -17 34 -18 42
-6 50 22 14 73 11 95 -6z m1010 -52 c-8 -8 -86 8 -86 18 0 6 14 7 34 4 30 -6
34 -4 42 22 l8 28 4 -33 c2 -19 1 -36 -2 -39z m184 -69 c5 -49 10 -109 10
-132 l0 -44 -37 30 c-47 37 -104 66 -163 83 l-45 13 33 4 c20 2 55 -7 90 -22
l57 -26 -45 41 c-34 31 -38 37 -15 24 17 -10 42 -29 58 -43 15 -14 27 -21 27
-16 0 17 -53 62 -94 79 -21 9 -36 19 -33 22 10 9 76 -18 106 -43 l29 -24 -15
56 c-15 61 -11 87 6 33 10 -31 10 -29 6 20 -8 93 15 43 25 -55z m-2292 45 c-5
-28 -7 -54 -4 -57 3 -3 6 2 6 11 0 20 19 71 25 65 2 -2 -2 -28 -10 -58 -8 -30
-15 -57 -15 -58 0 -2 13 7 30 21 16 14 46 31 66 37 33 11 35 14 21 25 -15 11
-15 14 6 33 13 12 27 22 33 21 16 -1 56 -58 52 -76 -4 -20 -45 -30 -60 -15
-19 19 -129 -40 -142 -75 -3 -8 11 -2 31 15 64 49 93 58 43 13 l-45 -41 43 21
c40 20 132 38 132 27 0 -3 -31 -15 -68 -27 -38 -13 -92 -40 -122 -63 l-53 -40
6 114 c6 114 13 158 27 158 4 0 3 -23 -2 -51z m786 5 c17 -4 32 -18 41 -38 11
-25 14 -27 14 -10 2 35 14 36 34 2 10 -18 15 -24 11 -13 -16 50 -17 58 -4 53
8 -2 19 -20 26 -39 7 -19 13 -29 13 -22 1 6 -3 23 -8 36 -19 49 3 36 34 -20
17 -32 39 -70 49 -85 10 -16 14 -28 8 -28 -6 0 -20 16 -32 36 -12 19 -24 33
-27 30 -3 -3 2 -15 11 -28 19 -26 21 -42 4 -32 -8 5 -9 1 -5 -12 4 -10 -16 6
-44 36 -55 59 -56 51 -2 -16 34 -42 44 -65 19 -45 -11 9 -15 8 -20 -6 -6 -14
-20 -4 -77 53 -81 79 -149 160 -149 177 1 7 10 1 20 -12 22 -26 26 -21 9 11
l-11 21 29 -21 c16 -11 42 -24 57 -28z m786 27 c-16 -31 -12 -36 11 -15 l22
19 -16 -30 c-25 -47 -193 -219 -206 -211 -6 4 -9 12 -5 17 3 5 9 7 13 5 8 -5
53 39 81 80 8 11 -6 -2 -32 -30 -61 -64 -62 -51 -2 20 26 30 41 54 35 54 -6 0
-11 -3 -11 -7 -1 -5 -28 -37 -60 -73 -33 -36 -57 -57 -54 -47 5 13 2 16 -12
10 -13 -5 -9 6 15 43 l32 49 -36 -40 c-36 -39 -36 -39 -21 -8 24 48 19 52 -9
10 -14 -20 -30 -37 -36 -37 -11 0 -9 4 33 67 16 23 33 56 39 72 6 17 15 29 20
26 4 -3 4 -17 -1 -31 -16 -42 -10 -52 7 -11 8 20 20 37 25 37 10 0 8 -11 -7
-55 -4 -12 0 -9 11 8 23 33 34 35 35 5 1 -20 3 -19 14 9 10 21 24 33 42 38 15
3 39 14 53 25 31 24 33 25 20 1z m-977 -52 c36 -1 38 -2 17 -9 -54 -17 -68
-12 -72 25 -2 20 -2 38 1 41 4 3 7 -8 9 -25 3 -29 6 -31 45 -32z m1173 -16
c-7 -7 -86 7 -86 16 0 4 16 5 35 3 33 -4 36 -2 43 29 l7 34 3 -39 c2 -21 1
-40 -2 -43z m101 -19 c-2 -2 -23 2 -48 10 l-44 14 38 1 c34 1 38 4 45 34 7 32
7 32 10 -12 2 -23 2 -45 -1 -47z m-1375 26 c50 0 47 -6 -10 -18 l-42 -10 1 42
c2 29 3 33 6 14 4 -25 8 -28 45 -28z m1675 35 c3 -11 -52 -46 -61 -38 -3 3 2
16 11 30 16 23 43 28 50 8z m-1779 -47 c18 2 32 -1 32 -7 0 -6 -8 -11 -17 -11
-10 0 -28 -3 -39 -6 -19 -5 -22 -1 -26 30 -5 44 5 59 12 19 5 -25 9 -28 38
-25z m1582 12 l0 -41 -37 7 c-51 9 -70 28 -21 21 34 -5 37 -4 43 24 9 41 15
36 15 -11z m-1682 -24 c43 2 41 -12 -4 -21 -43 -8 -42 -8 -44 30 -3 44 1 54 9
20 6 -26 11 -30 39 -29z m1782 13 l0 -41 -37 7 c-21 3 -42 11 -48 17 -7 6 2 7
27 3 34 -7 36 -5 43 24 9 43 15 39 15 -10z m-829 -119 c55 -20 99 -55 99 -77
0 -21 -15 -15 -53 20 -64 61 -169 72 -257 27 -22 -11 -46 -29 -52 -40 -7 -11
-18 -20 -25 -20 -42 0 26 71 90 93 60 22 138 20 198 -3z m-14 -35 c40 -17 73
-43 73 -57 0 -15 -31 -8 -61 14 -44 33 -154 33 -198 1 -47 -35 -85 -27 -43 9
55 48 157 63 229 33z"/>
<path d="M2037 940 c3 -52 7 -97 9 -99 7 -8 3 104 -6 149 -5 31 -6 15 -3 -50z"/>
<path d="M2143 682 c-10 -11 -26 -22 -35 -25 -29 -10 -21 -27 12 -27 17 0 30
1 30 3 0 1 4 17 9 35 11 37 9 39 -16 14z"/>
<path d="M1439 558 c21 -29 42 -64 46 -77 7 -22 8 -22 30 17 13 23 36 57 50
77 15 19 22 35 16 35 -6 0 -11 -4 -11 -10 0 -13 -54 -40 -79 -40 -11 0 -33 11
-49 25 -46 38 -47 30 -3 -27z"/>
<path d="M1169 484 c5 -11 17 -26 25 -34 9 -7 16 -17 16 -23 0 -6 -14 2 -32
19 -18 16 -8 1 22 -34 37 -44 55 -59 61 -51 4 7 3 20 -2 28 -16 28 -101 117
-90 95z"/>
<path d="M1741 429 c-18 -22 -31 -42 -28 -45 2 -3 19 13 37 36 18 23 30 43 28
45 -3 3 -19 -13 -37 -36z"/>
<path d="M948 1466 c-15 -28 -4 -99 22 -140 32 -52 85 -76 198 -88 112 -11
142 -26 142 -68 0 -16 4 -40 10 -54 8 -22 7 -26 -8 -26 -26 0 -42 -20 -42 -52
0 -37 55 -100 85 -96 13 2 36 -10 59 -29 63 -56 104 -56 176 1 24 19 48 32 52
30 17 -11 48 8 68 40 33 54 22 106 -22 106 -15 0 -16 4 -8 26 6 14 10 38 10
54 0 42 30 57 143 69 59 6 114 18 135 29 65 33 102 111 88 185 l-6 33 -68 1
c-53 0 -62 -2 -42 -9 14 -5 42 -7 63 -5 51 7 38 -5 -16 -14 -41 -8 -41 -8 11
-5 44 3 52 0 52 -14 0 -76 -56 -150 -126 -169 -23 -6 -91 -13 -152 -16 -88 -3
-111 -2 -115 9 -7 19 51 41 128 50 99 12 163 34 205 73 22 19 40 38 40 42 0
11 -174 5 -220 -8 -63 -17 -112 -52 -135 -95 -11 -20 -23 -36 -27 -36 -13 0
-9 13 15 52 29 48 76 82 135 98 60 16 78 31 22 19 -78 -18 -145 -64 -178 -124
-11 -19 -11 -19 -12 -1 0 32 47 83 102 111 l53 26 -40 -6 c-21 -4 -52 -18 -68
-31 -16 -13 -32 -24 -36 -24 -14 0 -51 37 -44 44 3 3 2 6 -4 6 -5 0 -20 -11
-32 -24 -24 -25 -51 -25 -51 0 0 20 -9 17 -29 -7 l-17 -21 -17 26 c-17 25 -47
36 -47 16 0 -5 -12 -10 -27 -10 -20 0 -24 3 -14 9 10 7 6 9 -13 8 -24 -2 -25
-3 -9 -14 9 -7 26 -13 37 -13 17 0 18 -2 6 -10 -21 -14 -23 -13 -65 20 -24 19
-49 30 -69 30 -29 -1 -28 -2 22 -26 51 -25 102 -77 102 -105 0 -7 -11 2 -24
22 -14 20 -36 43 -49 52 -30 19 -147 60 -154 53 -3 -3 15 -10 38 -16 71 -19
117 -48 149 -92 17 -22 30 -47 30 -53 0 -18 -26 -66 -32 -60 -3 3 -51 8 -108
10 -118 6 -166 16 -205 47 -31 24 -64 90 -65 129 0 25 2 26 53 23 51 -3 51 -3
10 5 -51 9 -70 22 -22 15 19 -3 52 -1 74 4 36 9 33 10 -33 8 -62 -1 -76 -4
-84 -20z m473 -79 c8 -18 5 -39 -15 -97 -27 -77 -33 -135 -16 -160 8 -11 9 -8
4 12 -8 34 14 138 28 135 6 -1 15 9 19 23 5 14 6 -17 3 -70 -4 -52 -11 -100
-16 -107 -5 -7 -6 -18 -2 -25 6 -11 5 -11 -8 0 -12 9 -18 10 -23 2 -5 -8 -10
-8 -20 0 -10 8 -14 7 -18 -2 -6 -18 -27 36 -27 72 0 15 11 52 25 82 15 32 25
71 25 99 0 63 21 81 41 36z m108 13 c5 0 11 -63 14 -139 6 -159 17 -196 60
-196 15 1 27 -2 26 -5 0 -7 -105 -89 -122 -96 -11 -4 -137 88 -137 100 0 1 12
2 27 1 46 0 57 38 57 197 1 129 2 137 21 141 11 2 26 3 33 1 8 -2 17 -4 21 -4z
m93 -57 c3 -33 16 -78 27 -99 21 -39 29 -124 12 -124 -5 0 -11 -10 -14 -22 -4
-12 -9 -20 -12 -16 -3 3 0 17 6 32 9 20 9 31 1 48 -11 21 -12 20 -7 -12 4 -27
3 -30 -4 -15 -5 11 -10 34 -10 51 -1 17 -10 57 -21 89 -20 58 -26 116 -13 129
16 16 28 -5 35 -61z m281 36 c-11 -11 -114 -31 -121 -24 -12 11 18 27 64 34
52 8 71 4 57 -10z m-299 -179 c7 -36 17 -72 21 -81 3 -10 1 -20 -5 -24 -6 -4
-11 -1 -9 6 4 32 -3 43 -12 20 -9 -24 -10 -24 -23 -5 -7 10 -16 60 -19 109 -4
58 -3 81 3 65 6 -18 8 -8 5 35 l-5 60 15 -60 c8 -33 21 -89 29 -125z m-194
-190 c41 -36 77 -60 90 -60 14 0 50 24 91 60 70 62 101 73 118 42 12 -23 -17
-75 -51 -93 -22 -11 -22 -11 3 17 55 62 51 66 -10 11 -36 -31 -71 -57 -78 -57
-8 0 -23 -9 -35 -20 -23 -21 -72 -24 -64 -3 3 7 -1 10 -10 6 -7 -3 -14 0 -14
7 0 6 -4 8 -10 5 -6 -4 -10 6 -10 22 0 21 -3 24 -9 13 -6 -8 -7 -19 -3 -25 9
-15 -69 49 -102 83 -15 17 -25 35 -22 41 15 24 51 8 116 -49z m-57 -60 c-7 -7
-63 58 -63 73 0 6 16 -6 34 -28 19 -22 32 -42 29 -45z"/>
<path d="M1625 994 c-11 -9 -29 -22 -39 -30 -11 -7 -17 -16 -15 -19 3 -3 23
11 45 30 40 35 46 47 9 19z"/>
<path d="M294 1414 c-9 -21 -34 -81 -56 -133 -22 -52 -36 -97 -31 -100 172
-117 250 -157 283 -146 23 7 18 25 -7 25 -23 0 -133 57 -171 88 l-33 28 20 54
21 55 -35 -40 c-19 -22 -35 -38 -35 -35 0 3 16 44 35 90 33 80 36 85 62 82 36
-5 36 -4 24 -48 -14 -50 -8 -53 19 -9 32 52 34 37 5 -29 -14 -32 -23 -61 -20
-66 7 -11 132 -60 153 -60 11 1 7 6 -13 17 -34 17 -85 63 -85 75 0 4 15 -1 33
-12 18 -11 51 -26 75 -34 l42 -15 0 28 c0 16 3 42 6 58 6 29 4 31 -58 53 -77
29 -177 77 -200 98 -16 14 -19 12 -34 -24z m223 -105 c27 -10 38 -28 25 -41
-10 -10 -112 18 -112 31 0 4 5 12 12 19 11 11 25 10 75 -9z"/>
<path d="M2665 1441 c-9 -15 -125 -73 -204 -101 l-63 -23 6 -45 c3 -25 6 -51
6 -58 0 -16 63 4 116 37 19 11 34 17 34 12 0 -13 -38 -47 -80 -72 -19 -11 -30
-21 -24 -21 15 0 85 25 129 46 l34 16 -25 55 c-28 64 -25 81 6 32 l21 -34 -6
46 c-7 44 -6 47 20 53 15 4 28 6 29 4 10 -16 75 -182 73 -185 -2 -2 -17 15
-32 37 -15 22 -30 39 -32 36 -2 -2 5 -26 16 -54 l20 -50 -53 -36 c-28 -20 -78
-47 -109 -60 -48 -19 -55 -25 -43 -35 24 -20 93 15 279 140 9 6 -84 242 -103
262 -4 5 -11 4 -15 -2z m-120 -136 c0 -14 -12 -22 -48 -31 -50 -13 -68 -4 -47
21 13 16 67 35 85 31 6 -2 10 -11 10 -21z"/>
<path d="M970 1429 c0 -4 18 -23 40 -42 42 -39 106 -62 205 -73 33 -3 75 -13
94 -20 19 -8 35 -13 37 -11 8 8 -33 72 -61 93 -53 40 -112 56 -218 58 -53 0
-97 -2 -97 -5z m225 -49 c46 -17 13 -28 -50 -17 -67 12 -83 35 -21 31 23 -2
55 -8 71 -14z"/>
<path d="M1075 1315 c30 -19 53 -25 90 -24 l50 1 -53 9 c-29 5 -66 16 -82 24
-46 24 -49 17 -5 -10z"/>
<path d="M1910 1323 c-19 -9 -57 -19 -85 -23 l-50 -8 48 -1 c46 -1 110 20 123
40 6 11 7 11 -36 -8z"/>
<path d="M1370 912 c0 -19 60 -61 95 -68 52 -9 97 2 135 36 19 16 30 29 24 30
-6 0 -19 -9 -29 -20 -45 -50 -132 -49 -190 2 -19 16 -35 26 -35 20z"/>
</g>
</svg>
