<?xml version="1.0" standalone="no"?>
<!DOCTYPE svg PUBLIC "-//W3C//DTD SVG 20010904//EN"
 "http://www.w3.org/TR/2001/REC-SVG-20010904/DTD/svg10.dtd">
<svg version="1.0" xmlns="http://www.w3.org/2000/svg"
 width="300.000000pt" height="300.000000pt" viewBox="0 0 300.000000 300.000000"
 preserveAspectRatio="xMidYMid meet">
<metadata>
Created by potrace 1.10, written by Peter Selinger 2001-2011
</metadata>
<g transform="translate(0.000000,300.000000) scale(0.100000,-0.100000)"
fill="#000000" stroke="none">
<path d="M1473 2993 c-28 -5 -451 -454 -466 -494 -5 -14 32 -411 98 -1059 9
-85 20 -202 26 -260 5 -58 12 -115 15 -128 4 -22 4 -22 -116 -22 -115 0 -122
-1 -145 -25 -25 -24 -25 -26 -25 -208 0 -249 -17 -231 219 -235 l180 -3 3
-254 c3 -279 5 -288 68 -297 31 -5 31 2 -4 40 -20 22 -21 36 -24 265 -4 311
13 287 -202 287 -213 0 -200 -13 -200 195 0 135 3 166 16 179 12 13 38 16 118
16 97 0 104 1 126 25 l24 26 -28 282 c-15 155 -45 460 -67 677 -21 217 -39
419 -39 448 l0 53 99 107 c54 59 155 166 225 237 l126 130 102 -105 c57 -58
158 -165 226 -237 121 -131 122 -132 122 -181 0 -43 -19 -247 -105 -1107 -31
-307 -31 -306 -2 -333 21 -20 34 -22 124 -22 79 0 105 -4 117 -16 13 -13 16
-44 16 -179 0 -208 13 -195 -200 -195 -214 0 -197 24 -202 -287 l-3 -242 -28
-29 c-15 -15 -27 -31 -27 -35 0 -13 54 5 75 24 19 18 20 35 23 274 l3 254 180
3 c236 4 219 -14 219 235 0 182 0 184 -25 208 -23 24 -30 25 -145 25 -120 0
-120 0 -116 22 3 13 10 70 15 128 6 58 17 175 26 260 73 713 102 1045 95 1064
-7 19 -220 253 -385 423 -58 60 -87 74 -132 66z"/>
<path d="M1330 2662 c-78 -82 -152 -164 -166 -183 l-24 -34 35 -355 c19 -195
49 -497 65 -670 17 -173 33 -330 36 -349 12 -74 94 -106 149 -58 l25 22 6 610
c3 336 7 620 10 633 5 25 44 31 61 10 6 -8 13 -250 16 -633 l7 -620 25 -22
c59 -52 138 -16 149 68 12 84 126 1257 128 1315 4 72 9 63 -184 267 -116 122
-145 147 -168 147 -24 0 -53 -25 -170 -148z m276 10 c55 -59 126 -135 157
-168 l57 -61 -30 -304 c-16 -167 -34 -347 -40 -399 -6 -52 -21 -212 -35 -355
-14 -143 -28 -282 -31 -308 l-6 -48 -44 3 -44 3 -3 633 -2 634 -28 24 c-16 13
-41 24 -57 24 -16 0 -41 -11 -57 -24 l-28 -24 -2 -634 -3 -633 -44 -3 -44 -3
-6 48 c-3 26 -17 165 -31 308 -14 143 -29 303 -35 355 -6 52 -24 232 -40 399
l-30 304 57 61 c148 160 258 276 263 276 3 0 50 -48 106 -108z"/>
<path d="M1011 874 c-32 -41 -29 -123 5 -158 l27 -26 456 0 c343 1 460 4 472
13 44 33 54 126 18 171 l-20 26 -469 0 -469 0 -20 -26z m959 -79 l0 -65 -470
0 -470 0 0 65 0 65 470 0 470 0 0 -65z"/>
<path d="M1422 577 c-21 -22 -22 -32 -22 -214 l0 -192 26 -20 c39 -31 117 -29
149 4 25 24 25 26 25 213 0 184 -1 189 -23 210 -34 32 -125 31 -155 -1z m138
-212 l0 -195 -60 0 -60 0 0 195 0 195 60 0 60 0 0 -195z"/>
</g>
</svg>
